#!OML:ASF F:\VICON\USERDATA\INSTALL\rory3\rory3.ASF
:FULLY-SPECIFIED
:DEGREES
55
root -0.27554873079757464 18.634724124549244 24.09933558989539 4.643544618144963 6.275623792586996 -3.8078243077067357
lfemur -41.97480375358958 -3.358087085139199 -18.455821268639287
ltibia 46.74710198233773
lfoot 0.8567435768306195 -14.054229983626037
ltoes -18.683851112304165
rfemur 16.870237855067764 5.323177678559308 34.64745404308994
rtibia 28.306535923668104
rfoot 29.920739061630105 -0.4474877855452286
rtoes 7.413173620594298
lowerback 11.322898852304556 2.170454297293108 6.7399303734891
upperback -2.031482842797615 3.916911828515373 0.32167751599679306
thorax -8.445755772505002 1.6020713027197084 -4.174898700007954
lowerneck -18.456346345707484 -6.694809037464869 -2.2236189003388476
upperneck 16.0708577321423 -9.234529631870153 3.493890991599457
head 8.35018066669662 -4.19278374684799 0.4407915726827223
lclavicle -1.0764454982970741e-15 -8.994654104311715e-16
lhumerus -74.949900512178 -2.297379383648854 94.2326458251448
lradius 117.32713590856301
lwrist 40.44785167398744
lhand -23.452254247778086 3.564960097469374
lfingers 7.125020000000057
lthumb 3.005529628356534 33.44472953005079
rclavicle -1.0764454982970741e-15 -8.994654104311715e-16
rhumerus -34.673240869587325 17.074072282565723 -97.42228156116474
rradius 121.95820543118853
rwrist -21.902886296109887
rhand -14.849370895999883 17.016306068279775
rfingers 7.125020000000057
rthumb 11.297013269302163 33.44865823390106
56
root -0.2679068593915921 18.714921047470014 24.71772689289313 4.6844082723893585 6.1143706686950345 -3.873250406112355
lfemur -40.33502867857047 -2.8254375362979927 -18.637821701343373
ltibia 38.47341599962308
lfoot 2.662178671980184 -15.170051575546225
ltoes -18.336287100912795
rfemur 17.88507581620209 6.765954627699912 35.36205746789186
rtibia 30.708354106504064
rfoot 31.753138243422637 -0.5968796682107875
rtoes 10.190721451111017
lowerback 10.743782597315612 2.4384226054558833 6.759504226394001
upperback -2.0924378969245936 4.232601168542981 0.1569737995532292
thorax -8.169307135452483 1.757864532673099 -4.36932251377281
lowerneck -18.42958670009188 -6.849431165077363 -2.2713484645369895
upperneck 16.582866072335154 -9.477152852453102 3.6480399941767465
head 8.543219291838048 -4.291479866810478 0.46512055860655166
lclavicle -9.701427296950742e-16 -8.171548732936365e-16
lhumerus -76.81170846674968 -0.25134518577251175 93.20707888835814
lradius 118.58842163012449
lwrist 40.8973766308713
lhand -23.04105033889782 2.8848570818245935
lfingers 7.125020000000057
lthumb 3.4024498003818877 32.750168251020874
rclavicle -9.701427296950742e-16 -8.171548732936365e-16
rhumerus -34.80284995112045 18.09061684731649 -97.76577320251396
rradius 121.76057496852187
rwrist -22.112640185841812
rhand -14.432133505659948 10.731392684305781
rfingers 7.125020000000057
rthumb 11.698922241931541 35.691047835178345
57
root -0.2551417949527852 18.729961850498267 25.287591130792663 4.537170510474875 5.831226267043304 -4.029969049996767
lfemur -38.62023197065328 -2.057924707769772 -18.827165258551325
ltibia 32.53033478209925
lfoot 4.047570956305364 -15.566832841447752
ltoes -17.751824420538043
rfemur 17.675418126359617 7.752421025492181 36.009436421753904
rtibia 35.20744546238908
rfoot 30.939234648066684 -1.6380878719820462
rtoes 11.40264554969491
lowerback 10.60501740012746 2.632805808585533 6.682829048646178
upperback -2.0352303551116377 4.4677894811642425 0.11821495104379309
thorax -7.99997157648958 1.8787357707964802 -4.389860501671012
lowerneck -18.501231268414855 -6.92833858632076 -2.3149330078514616
upperneck 16.82474242414193 -9.601942205190596 3.7714437703617762
head 8.655310057450713 -4.337563250113114 0.492965266082486
lclavicle -8.999595938597901e-16 -7.628118673165134e-16
lhumerus -77.75700885226291 1.2844273064172378 92.54141337335557
lradius 119.3571873342762
lwrist 40.90823507318092
lhand -22.365640081491073 2.073269802503402
lfingers 7.125020000000057
lthumb 4.054428282431043 31.914806591962794
rclavicle -8.999595938597901e-16 -7.628118673165134e-16
rhumerus -34.901381433610915 18.762904166458537 -98.00052363273265
rradius 121.00551560866495
rwrist -21.995827500687852
rhand -15.174848589114056 4.736724973259218
rfingers 7.125020000000057
rthumb 10.984625181572 34.26969417917004
58
root -0.24824070817458127 18.692536810458392 25.689389091287715 4.195515250384585 5.602469129263506 -4.219115800942188
lfemur -36.95571046514577 -1.3353747963029383 -19.180769435781123
ltibia 28.092544292549015
lfoot 4.975605775496735 -15.75778760107637
ltoes -16.99541235355938
rfemur 16.4367292445695 8.156400524955835 36.28258601228441
rtibia 41.25910844403239
rfoot 28.951465309063888 -3.2770362154155217
rtoes 11.3671141858855
lowerback 10.799240771136454 2.718857533267567 6.493036261917005
upperback -1.8975742755168497 4.566094946251655 0.14325115856054405
thorax -7.945532243984047 1.9372078468644505 -4.305526229827981
lowerneck -18.638534492711674 -6.945740171627896 -2.3569037863065874
upperneck 16.753674576231496 -9.63303579887748 3.859876845597374
head 8.666108228313972 -4.341558972879059 0.523173902866299
lclavicle -1.0348031368277676e-15 -8.67221607558413e-16
lhumerus -78.07535030901286 2.195987965715662 92.26946289241197
lradius 119.64897797814123
lwrist 40.431665425024796
lhand -21.732187634072154 1.3920861653406984
lfingers 7.125020000000057
lthumb 4.665945594859241 31.212693724422984
rclavicle -1.0348031368277676e-15 -8.67221607558413e-16
rhumerus -35.245682256776334 19.025345417910945 -98.36971004504103
rradius 119.79338175279383
rwrist -21.759818576814922
rhand -16.764539298188133 -0.03051037864729622
rfingers 7.125020000000057
rthumb 9.454805479686195 29.91571992968143
